HIERARCHY
ROOT root
{
	OFFSET 0.000000 0.000000 0.000000
	CHANNELS 6 Xposition Yposition Zposition Zrotation Yrotation Xrotation
	JOINT lhip
	{
		OFFSET 0.058581 -0.082280 -0.017664
		CHANNELS 3 Zrotation Yrotation Xrotation
		JOINT lknee
		{
			OFFSET 0.043451 -0.386469 0.008037
			CHANNELS 3 Zrotation Yrotation Xrotation
			JOINT lankle
			{
				OFFSET -0.014790 -0.426874 -0.037428
				CHANNELS 3 Zrotation Yrotation Xrotation
				JOINT ltoe
				{
					OFFSET 0.041054 -0.060286 0.122042
					CHANNELS 3 Zrotation Yrotation Xrotation
					End Site
					{
						OFFSET 0.000000 0.000000 0.000000
					}
				}
			}
		}
	}
	JOINT rhip
	{
		OFFSET -0.060310 -0.090513 -0.013543
		CHANNELS 3 Zrotation Yrotation Xrotation
		JOINT rknee
		{
			OFFSET -0.043257 -0.383688 -0.004843
			CHANNELS 3 Zrotation Yrotation Xrotation
			JOINT rankle
			{
				OFFSET 0.019056 -0.420046 -0.034562
				CHANNELS 3 Zrotation Yrotation Xrotation
				JOINT rtoe
				{
					OFFSET -0.034840 -0.062106 0.130323
					CHANNELS 3 Zrotation Yrotation Xrotation
					End Site
					{
						OFFSET 0.000000 0.000000 0.000000
					}
				}
			}
		}
	}
	JOINT lowerback
	{
		OFFSET 0.004439 0.124404 -0.038385
		CHANNELS 3 Zrotation Yrotation Xrotation
		JOINT upperback
		{
			OFFSET 0.004488 0.137956 0.026820
			CHANNELS 3 Zrotation Yrotation Xrotation
			JOINT chest
			{
				OFFSET -0.002265 0.056032 0.002855
				CHANNELS 3 Zrotation Yrotation Xrotation
				JOINT lowerneck
				{
					OFFSET -0.013390 0.211636 -0.033468
					CHANNELS 3 Zrotation Yrotation Xrotation
					JOINT upperneck
					{
						OFFSET 0.010113 0.088937 0.050410
						CHANNELS 3 Zrotation Yrotation Xrotation
						End Site
						{
							OFFSET 0.000000 0.000000 0.000000
						}
					}
				}
				JOINT lclavicle
				{
					OFFSET 0.071702 0.114000 -0.018898
					CHANNELS 3 Zrotation Yrotation Xrotation
					JOINT lshoulder
					{
						OFFSET 0.122921 0.045205 -0.019046
						CHANNELS 3 Zrotation Yrotation Xrotation
						JOINT lelbow
						{
							OFFSET 0.255332 -0.015649 -0.022946
							CHANNELS 3 Zrotation Yrotation Xrotation
							JOINT lwrist
							{
								OFFSET 0.265709 0.012698 -0.007375
								CHANNELS 3 Zrotation Yrotation Xrotation
								End Site
								{
									OFFSET 0.000000 0.000000 0.000000
								}
							}
						}
					}
				}
				JOINT rclavicle
				{
					OFFSET -0.082954 0.112472 -0.023707
					CHANNELS 3 Zrotation Yrotation Xrotation
					JOINT rshoulder
					{
						OFFSET -0.113228 0.046853 -0.008472
						CHANNELS 3 Zrotation Yrotation Xrotation
						JOINT relbow
						{
							OFFSET -0.260127 -0.014369 -0.031269
							CHANNELS 3 Zrotation Yrotation Xrotation
							JOINT rwrist
							{
								OFFSET -0.269108 0.006794 -0.006027
								CHANNELS 3 Zrotation Yrotation Xrotation
								End Site
								{
									OFFSET 0.000000 0.000000 0.000000
								}
							}
						}
					}
				}
			}
		}
	}
}
MOTION
Frames: 17
Frame Time: 0.033333
0.223341 0.319699 0.981300 -63.679964 1.206498 93.340642 -1.616969 -1.650126 -14.023740 -5.368577 0.215691 15.696839 7.507997 16.149431 -17.855987 0.000000 -0.000000 0.000000 -12.479171 -6.127069 -10.617795 -1.081513 -9.566233 33.300916 -0.197572 -18.517396 -7.877869 0.000000 -0.000000 0.000000 -2.522920 2.451521 12.180097 0.392655 -0.837767 -6.859170 0.642522 -1.143421 1.902587 3.809049 0.145558 -6.476780 0.896573 -1.840161 8.572326 -26.024114 0.384333 -0.643082 -48.304827 -12.910735 5.402946 12.542486 -26.613875 -4.270469 17.984275 -6.500011 -6.827913 24.553465 2.527757 -1.953045 51.338017 8.828382 15.761115 -7.922977 28.029376 -2.185282 -8.114034 7.337459 1.454938 
0.221504 0.315310 0.981715 -63.636384 1.947515 93.378013 -0.871818 -1.117721 -13.832298 -5.730860 0.086316 15.770715 7.406463 15.997595 -18.127049 0.000000 -0.000000 0.000000 -11.460617 -6.091391 -11.046517 -1.573793 -9.267026 34.136863 -0.518258 -18.144034 -7.142569 0.000000 -0.000000 0.000000 -2.124919 2.261862 12.148772 0.445111 -0.763384 -6.540284 0.644464 -1.183310 1.810317 3.952404 -0.054875 -6.724288 1.128939 -1.475111 8.439929 -26.379688 0.566525 -0.672061 -48.932292 -12.556747 5.406315 13.430813 -26.174391 -5.257092 17.411865 -5.829547 -6.872463 24.689015 2.620654 -1.914294 51.134764 8.340998 15.468358 -7.838396 27.742897 -1.955245 -6.584617 7.186673 0.903591 
0.219420 0.311424 0.981651 -63.624309 3.169396 93.460249 0.461129 -0.280260 -13.857167 -6.117801 -0.244371 16.146948 7.427740 15.653184 -18.691505 0.000000 -0.000000 0.000000 -9.661626 -5.459089 -11.711899 -1.978001 -8.859322 35.059469 -1.422306 -18.760446 -7.024448 0.000000 -0.000000 0.000000 -1.371882 1.820156 12.033377 0.738518 -0.520960 -6.250280 0.511665 -1.101261 1.771390 4.297070 -0.391458 -6.878444 1.273847 -0.942617 8.264188 -26.519643 0.806976 -0.535334 -49.321217 -12.175833 5.522211 13.511320 -25.581781 -5.384102 16.809175 -5.272402 -7.481084 24.712442 2.621199 -1.700739 50.844755 8.148649 15.109299 -7.997691 27.167723 -2.177857 -6.937106 6.899081 0.789937 
0.216749 0.306389 0.982909 -63.703626 4.138176 93.026640 1.125701 0.537163 -12.893593 -6.029918 -0.998963 15.983272 7.562927 15.186101 -19.493829 0.000000 -0.000000 0.000000 -8.381552 -4.569896 -12.686066 -2.495869 -8.942211 37.541351 -2.290997 -19.872635 -7.872507 0.000000 -0.000000 0.000000 -1.302851 1.390868 12.807692 1.070778 -0.172417 -6.058153 0.687341 -1.121970 1.806308 4.996797 -0.010185 -7.406062 1.332653 -0.799265 7.967108 -26.739351 0.968931 -0.366212 -49.220140 -11.614485 5.367864 13.338002 -24.283166 -5.535023 16.483390 -4.792192 -7.288666 25.049308 2.491135 -2.113422 50.476544 7.935069 15.037936 -8.089681 27.000665 -2.649691 -7.065654 6.479972 0.418488 
0.216235 0.305095 0.982729 -63.656015 4.304022 93.071998 1.237730 0.546208 -12.825426 -6.054728 -1.108057 15.901349 7.590410 15.215148 -19.595936 0.000000 -0.000000 0.000000 -8.296501 -4.317255 -13.348642 -2.543566 -9.396374 38.614742 -2.513296 -20.099238 -8.267126 0.000000 -0.000000 0.000000 -1.375785 1.224508 12.902034 1.152473 -0.126953 -6.050120 0.735893 -1.135048 1.749305 5.123974 0.156504 -7.381162 1.395938 -0.731063 8.016528 -26.696418 0.982545 -0.221810 -49.211731 -11.450134 5.200360 13.470762 -23.706052 -5.703287 16.326059 -4.830229 -7.132566 25.010832 2.474914 -2.016734 50.564252 8.009764 14.897695 -8.420566 26.634006 -2.823827 -7.035369 6.537805 0.574028 
0.215132 0.302685 0.982519 -63.619435 4.650175 93.144283 1.395412 0.690596 -12.563644 -5.934044 -1.621625 15.471679 7.643260 15.486101 -19.665572 0.000000 -0.000000 0.000000 -8.169902 -3.931071 -14.600013 -2.485020 -10.319973 40.509596 -3.095109 -20.734385 -9.395734 0.000000 -0.000000 0.000000 -1.403610 0.937497 13.240985 1.265925 0.016511 -6.191531 0.820922 -1.188029 1.761112 5.532645 0.344477 -7.599957 1.473500 -0.904187 7.913431 -26.625584 1.103144 -0.142029 -49.030390 -11.232538 4.861808 13.371819 -22.353016 -5.721318 17.075462 -4.743232 -6.623824 25.065147 2.341098 -2.154240 50.552746 8.113961 14.627241 -8.607952 26.168109 -3.087689 -8.477174 6.721205 0.858617 
0.213915 0.300690 0.982731 -63.644374 4.817512 93.072599 1.555569 0.912336 -12.208183 -6.126322 -1.858581 15.253485 7.379364 15.488306 -19.879684 0.000000 -0.000000 0.000000 -8.232549 -3.634681 -15.463670 -2.293804 -10.997550 41.853542 -2.952259 -20.739642 -12.006556 0.000000 -0.000000 0.000000 -1.446108 0.770543 13.434511 1.340174 0.090183 -6.042909 0.845591 -1.220393 1.786195 5.879764 0.801227 -7.865214 1.315924 -1.441395 7.850497 -26.564523 1.054070 -0.152235 -48.759614 -10.933554 4.601491 13.677224 -21.320576 -6.413939 16.947678 -4.394323 -6.478903 25.170034 2.281897 -2.301645 50.582529 8.097616 14.589644 -8.799802 26.591279 -3.011100 -8.530965 6.289720 0.391074 
0.212665 0.299523 0.982932 -63.633812 5.014679 92.989555 1.736898 1.159200 -12.007384 -6.150328 -2.068752 15.296009 7.136307 15.478959 -20.048058 0.000000 -0.000000 0.000000 -8.117516 -3.505773 -16.007528 -1.765452 -10.984572 41.803573 -1.932629 -19.349674 -14.157802 0.000000 -0.000000 0.000000 -1.331384 0.674252 13.723081 1.361604 0.100079 -6.083414 0.871614 -1.254998 1.789790 5.882741 1.236027 -7.916912 1.061000 -1.514932 7.849724 -26.471217 1.113708 -0.283651 -48.604333 -10.643743 4.409497 14.090727 -20.405267 -7.108102 17.403516 -4.283037 -5.890663 25.220959 2.266456 -2.386143 50.592946 8.167222 14.480621 -8.786095 26.736349 -2.865431 -8.588749 6.368271 0.271982 
0.211055 0.298953 0.982683 -63.635730 5.189826 92.966197 1.840829 1.284300 -11.754258 -6.000035 -2.440891 15.129072 6.903023 15.592800 -20.226494 0.000000 -0.000000 0.000000 -8.096630 -3.603383 -16.245698 -1.201652 -10.746383 39.803899 -0.526937 -17.270278 -15.505712 0.000000 -0.000000 0.000000 -1.069135 0.644654 14.004981 1.296002 0.059124 -6.376530 0.880801 -1.212385 1.836228 5.750786 1.510137 -7.816362 1.111553 -1.868319 7.793868 -26.248053 1.266594 -0.447152 -48.494970 -10.600802 4.064057 14.519175 -19.681411 -8.354689 17.505612 -4.244758 -6.228289 25.161801 2.160226 -2.380167 50.741223 8.240856 14.422375 -8.687362 27.098864 -2.603563 -8.924773 6.228820 0.116871 
0.209023 0.298605 0.982198 -63.645498 5.176586 92.982603 1.939918 1.389122 -11.709396 -6.070575 -2.383336 15.354893 6.616207 15.449869 -20.505456 0.000000 -0.000000 0.000000 -8.408124 -3.876361 -16.445195 -0.552201 -10.446640 36.763195 0.358315 -16.560178 -17.012753 0.000000 -0.000000 0.000000 -0.921788 0.683701 13.813060 1.290544 0.042752 -6.327192 0.888650 -1.154776 1.953222 5.764115 1.577166 -7.962887 0.938224 -2.169533 7.871579 -26.235048 1.387149 -0.564864 -48.222576 -10.668005 3.849846 14.800851 -19.349219 -8.617963 17.544655 -4.277863 -5.410884 25.163976 2.143922 -2.306956 50.688660 8.322185 14.453203 -8.563160 27.595364 -2.294927 -8.866464 6.378621 0.158152 
0.206642 0.298564 0.981681 -63.659284 4.908637 92.896297 1.817184 1.444561 -11.534880 -6.131573 -2.088753 15.520096 6.151668 15.288793 -21.142240 0.000000 -0.000000 0.000000 -8.995096 -3.945184 -16.383287 0.465487 -9.424911 32.780357 5.575124 -14.255686 -16.302270 0.000000 -0.000000 0.000000 -0.982729 0.843662 13.853727 1.249712 0.036593 -6.444144 0.933508 -1.103766 1.818582 5.512570 1.690491 -7.776675 0.809541 -2.200616 8.130768 -26.219510 1.583101 -0.552075 -47.939556 -10.859008 3.819613 14.883394 -19.286924 -9.549677 17.687204 -4.986625 -4.615036 25.262632 1.974685 -2.311029 50.639305 8.435879 14.694795 -8.270433 28.093865 -2.605700 -7.668270 6.814604 0.261418 
0.203676 0.299191 0.981021 -63.567778 4.781298 92.851320 1.873387 1.467399 -11.294312 -6.215824 -2.052869 15.511258 6.138085 15.072311 -21.448036 0.000000 -0.000000 0.000000 -9.234417 -4.013685 -16.273440 1.339404 -8.001512 28.769784 5.594507 -13.018924 -17.014023 0.000000 -0.000000 0.000000 -0.851482 0.940409 13.507643 1.261730 0.070329 -6.296354 0.946538 -1.091363 1.716012 5.505312 1.533068 -7.679578 0.567354 -2.536131 8.202035 -26.413987 1.757213 -0.657192 -47.540495 -10.951832 3.897705 14.871995 -19.836678 -9.944685 18.101380 -4.820056 -4.827892 25.357435 1.870233 -2.095663 50.476471 8.651342 14.850170 -8.102979 28.407530 -2.775349 -8.638994 6.827574 0.293087 
0.200255 0.300220 0.980220 -63.359795 4.574873 92.679330 2.001983 1.834836 -10.983850 -6.536410 -2.168349 15.656549 6.086890 14.760483 -21.516122 0.000000 -0.000000 0.000000 -9.595994 -4.214973 -16.060339 2.253598 -6.387128 25.218470 5.855592 -11.238632 -16.083203 0.000000 -0.000000 0.000000 -0.783271 1.024072 13.381261 1.288805 0.087271 -6.343658 1.047484 -1.066785 1.442380 5.260987 1.478290 -7.076145 0.434669 -2.671027 8.417636 -26.553753 1.907563 -0.613091 -47.435422 -10.969216 3.764826 15.072263 -20.655292 -10.013779 17.246748 -4.851892 -4.827915 25.190855 1.719266 -1.895630 50.592673 8.750650 14.856475 -8.150659 28.506882 -2.492151 -8.021229 6.816668 0.386568 
0.196112 0.302002 0.979128 -63.082482 4.329051 92.454688 2.066917 1.967736 -10.679341 -6.695580 -2.327267 15.970109 6.218846 14.706588 -21.577188 0.000000 -0.000000 0.000000 -9.717428 -4.588113 -16.160696 2.865217 -4.390041 23.271932 6.235427 -9.187774 -13.422330 0.000000 -0.000000 0.000000 -0.692860 1.144257 12.870621 1.303309 0.021323 -6.071813 1.020605 -1.189479 1.293541 4.905883 1.321204 -6.501750 0.321584 -2.266296 8.605370 -26.542140 1.989874 -0.556437 -47.349429 -11.023799 3.878844 15.139472 -21.539769 -10.473807 17.724391 -4.812145 -5.080680 25.354154 1.794618 -1.617712 50.400005 8.993620 14.939902 -7.990942 28.511717 -2.621739 -7.887678 6.878504 0.219479 
0.191562 0.304811 0.978053 -62.630010 3.998069 92.046283 1.995557 1.628581 -10.390719 -6.604156 -2.513538 16.649283 6.177512 14.834394 -21.817210 0.000000 -0.000000 0.000000 -9.840872 -4.897098 -16.116171 2.314979 -4.096174 24.079239 6.985280 -9.726411 -12.754528 0.000000 -0.000000 0.000000 -0.863317 1.173585 12.653664 1.409771 -0.056674 -6.126645 1.040843 -1.233358 1.444848 5.034362 0.978434 -6.628951 0.196780 -2.592337 9.075857 -26.483244 1.888280 -0.580754 -47.310120 -11.306241 3.983044 15.112762 -22.072168 -10.790971 18.770192 -5.302593 -4.789263 25.473122 1.860688 -1.654378 50.444378 9.166005 15.008562 -8.057080 28.248361 -3.054757 -8.234456 6.906558 0.568171 
0.186677 0.308282 0.977284 -62.215109 3.812404 91.479926 2.130840 1.420265 -9.919764 -6.495306 -2.760864 17.316765 5.896495 14.939808 -22.136132 0.000000 -0.000000 0.000000 -9.863963 -4.912950 -15.173269 2.000424 -4.396582 24.650742 7.418628 -9.577547 -12.897437 0.000000 -0.000000 0.000000 -0.685602 1.211593 12.657619 1.336096 -0.003773 -6.145627 0.893246 -1.210875 1.439487 4.960464 0.853978 -6.525968 0.022793 -2.853318 9.482338 -26.566832 2.180705 -0.827045 -47.387065 -11.680628 3.989351 15.150633 -22.768627 -10.288898 17.335484 -4.869850 -5.416839 25.572300 1.715177 -1.919004 50.623463 9.060633 15.095741 -8.184358 28.271815 -2.997098 -7.576267 6.824605 0.800716 
0.182036 0.312575 0.977027 -61.821344 3.701374 90.843011 2.493642 1.289290 -9.168004 -6.475763 -2.952790 17.455769 5.481656 14.902864 -22.187776 0.000000 -0.000000 0.000000 -9.879459 -4.776773 -13.413599 2.138456 -4.588807 23.240620 7.554204 -9.236755 -12.885186 0.000000 -0.000000 0.000000 -0.465413 1.202527 12.847489 1.223180 -0.095751 -6.156884 0.822855 -1.149201 1.403597 4.828804 0.974337 -6.501381 -0.129801 -2.733173 9.913458 -26.685759 2.462523 -1.154499 -47.636979 -11.993528 3.805469 15.393536 -23.749336 -10.181542 17.697316 -5.282139 -5.154475 25.664896 1.697242 -2.085443 50.645478 9.076380 15.053692 -8.033023 28.363100 -2.740472 -7.640571 6.921536 1.040012 
